#N canvas 317 1500 1920 984 10;
#X obj 597 -248 bng 15 250 50 0 empty empty empty 17 7 0 10 -262144
-1 -1;
#X obj 597 -219 s b;
#X msg 508 -407 print;
#X obj 585 -176 hid;
#X floatatom 584 -60 5 0 0 0 - - -;
#X obj 585 -137 route abs;
#X floatatom 631 -78 5 0 0 0 - - -;
#X floatatom 678 -72 5 0 0 0 - - -;
#X obj 585 -387 r b;
#X floatatom 898 29 5 0 0 0 - - -;
#X msg 913 78 128;
#X floatatom 898 140 5 0 0 0 - - -;
#X obj 913 54 r b;
#X obj 23 376 r y;
#X obj 23 581 +;
#X obj 23 662 sqrt;
#X obj 23 429 pow 2;
#X obj 84 468 pow 2;
#X obj 23 404 abs;
#X obj 84 443 abs;
#X obj 97 601 pow 2;
#X obj 97 576 abs;
#X obj 23 640 +;
#X obj 365 43 bng 15 250 50 0 empty empty empty 17 7 0 10 -262144 -1
-1;
#X obj 323 -132 route key;
#X obj 365 -37 route btn_9;
#X obj 365 -2 select 1;
#X obj 346 181 s reset_y;
#X obj 678 -212 tgl 15 0 empty empty empty 17 7 0 10 -262144 -1 -1
1 1;
#X msg 425 124 0;
#X msg 602 985 disconnect;
#X obj 401 563 /;
#X obj 401 633 * 180;
#X obj 401 656 / 3.14159;
#X obj 416 436 r rayon;
#X obj 584 -108 route abs_x abs_y abs_rz;
#X obj 841 -53 r abs_x;
#X obj 899 171 s sens_x;
#X obj 250 181 s reset_x;
#X obj 84 416 r x;
#X obj 148 42 bng 15 250 50 0 empty empty empty 17 7 0 10 -262144 -1
-1;
#X obj 148 -3 select 1;
#X obj 18 45 bng 15 250 50 0 empty empty empty 17 7 0 10 -262144 -1
-1;
#X obj 18 0 select 1;
#X obj 18 -35 route btn_5;
#X obj 148 -38 route btn_4;
#X msg 147 92 10;
#X obj 678 -24 s abs_z;
#X obj 97 548 r z;
#X obj 395 476 r z;
#X obj 441 181 s reset_z;
#X obj 490 31 select 1;
#X obj 490 -37 route btn_8;
#X obj 490 -1 change;
#X obj 576 237 bng 15 250 50 0 empty empty empty 17 7 0 10 -262144
-1 -1;
#X obj 576 274 s bang_source;
#X obj 1114 738 r x;
#X obj 1136 776 r y;
#X obj 1174 775 r z;
#X obj 1038 1161 s reset_x;
#X obj 1136 1161 s reset_y;
#X obj 1236 1158 s reset_z;
#X obj 295 -28 r b;
#X obj 295 -3 delay 100;
#X obj 378 455 t b;
#X obj 57 591 t b;
#X obj 596 29 r b;
#X msg 596 59 0;
#X obj 596 86 s source;
#X obj 380 533 *;
#X msg 380 509 1;
#X text 551 -409 <-- 1) Print the ID of the connected joystick.;
#X obj 517 942 osc/packOSC;
#X obj 517 1035 net/udpsend;
#X obj 218 590 atan2;
#X obj 218 645 / 3.14159;
#X floatatom 218 668 5 0 0 0 - - -;
#X obj 401 610 cyclone/asin;
#X obj 875 -281 s osc_port;
#X obj 524 985 r osc_port;
#X obj 517 1067 tgl 15 0 empty empty empty 17 7 0 10 -262144 -1 -1
1 1;
#X obj 875 -340 r b;
#X text 297 95 initial source position;
#X obj 1038 -339 r b;
#X msg 1038 -312 3;
#X obj 1038 -280 s n_sources;
#X obj 542 107 + 1;
#X floatatom 490 136 5 0 0 0 - - -;
#X obj 490 105 int;
#X obj 519 180 mod;
#X obj 574 157 r n_sources;
#X floatatom 519 211 5 0 0 0 - - -;
#X msg 507 69 0;
#X obj 218 721 pack;
#X obj 239 691 r source;
#X msg 220 751 sendtyped /azimuth_\$2 f \$1;
#X obj 519 259 s source;
#X obj 401 722 pack;
#X obj 422 690 r source;
#X msg 401 752 sendtyped /elevation_\$2 f \$1;
#X obj 23 724 pack;
#X obj 44 690 r source;
#X msg 23 752 sendtyped /radius_\$2 f \$1;
#X obj 841 -14 select 128;
#X obj 584 -25 s abs_y;
#X obj 631 -49 s abs_x;
#X obj 219 509 r y;
#X obj 253 509 r x;
#X obj 898 106 <=;
#X obj 968 67 r abs_x;
#X obj 968 105 / 255;
#X obj 968 143 - 0.5;
#X obj 830 445 float;
#X obj 942 543 + 0.01;
#X floatatom 831 482 5 0 0 0 - - -;
#X obj 848 320 bng 15 250 50 0 empty empty empty 17 7 0 10 -262144
-1 -1;
#X msg 841 203 0;
#X obj 992 539 - 0.01;
#X obj 980 414 r sens_x;
#X obj 930 511 spigot;
#X obj 992 511 spigot;
#X obj 1000 482 -;
#X msg 1012 449 1;
#X text 982 570 step is 1 cm;
#X msg 315 125 1;
#X msg 374 123 0;
#X obj 854 375 r reset_x;
#X obj 831 527 s x;
#X obj 968 181 * -2;
#X obj 840 262 metro 10;
#X floatatom 1229 25 5 0 0 0 - - -;
#X msg 1244 74 128;
#X floatatom 1229 136 5 0 0 0 - - -;
#X obj 1244 50 r b;
#X obj 1172 -18 select 128;
#X obj 1293 99 / 255;
#X obj 1293 137 - 0.5;
#X obj 1161 441 float;
#X floatatom 1162 478 5 0 0 0 - - -;
#X obj 1179 316 bng 15 250 50 0 empty empty empty 17 7 0 10 -262144
-1 -1;
#X msg 1172 199 0;
#X obj 1243 468 spigot;
#X obj 1257 503 spigot;
#X obj 1288 472 -;
#X msg 1336 445 1;
#X text 1313 566 step is 1 cm;
#X obj 1171 258 metro 10;
#X obj 1172 -57 r abs_y;
#X obj 1230 167 s sens_y;
#X obj 1293 61 r abs_y;
#X obj 1185 371 r reset_y;
#X obj 1285 402 r sens_y;
#X obj 1157 525 s y;
#X obj 1293 175 * -2;
#X obj 1243 558 + 0.01;
#X obj 1351 535 - 0.01;
#X floatatom 1528 -6 5 0 0 0 - - -;
#X msg 1543 43 128;
#X floatatom 1528 105 5 0 0 0 - - -;
#X obj 1543 19 r b;
#X obj 1471 -49 select 128;
#X obj 1592 68 / 255;
#X obj 1592 106 - 0.5;
#X obj 1460 410 float;
#X floatatom 1461 447 5 0 0 0 - - -;
#X obj 1478 285 bng 15 250 50 0 empty empty empty 17 7 0 10 -262144
-1 -1;
#X msg 1471 168 0;
#X obj 1542 437 spigot;
#X obj 1556 472 spigot;
#X obj 1587 441 -;
#X msg 1635 414 1;
#X text 1612 535 step is 1 cm;
#X obj 1470 227 metro 10;
#X obj 1592 144 * -2;
#X obj 1528 71 <=;
#X obj 1542 527 + 0.01;
#X obj 1650 504 - 0.01;
#X obj 1456 494 s z;
#X obj 1470 -87 r abs_z;
#X obj 1591 30 r abs_z;
#X obj 1484 340 r reset_z;
#X obj 1584 371 r sens_z;
#X obj 1529 136 s sens_z;
#X obj 218 622 * 180;
#X obj 253 556 t b f;
#X obj 219 557 f;
#X obj 38 518 t b f;
#X obj 967 209 abs;
#X floatatom 935 231 5 0 0 0 - - -;
#X obj 991 287 /;
#X floatatom 1036 251 5 0 0 0 - - -;
#X obj 935 265 t b f;
#X floatatom 986 324 5 0 0 0 - - -;
#X obj 1588 166 abs;
#X floatatom 1558 192 5 0 0 0 - - -;
#X obj 1624 267 /;
#X floatatom 1666 227 5 0 0 0 - - -;
#X obj 1568 245 t b f;
#X floatatom 1619 304 5 0 0 0 - - -;
#X obj 1293 211 abs;
#X floatatom 1261 233 5 0 0 0 - - -;
#X obj 1317 289 /;
#X floatatom 1359 246 5 0 0 0 - - -;
#X obj 1261 267 t b f;
#X floatatom 1312 326 5 0 0 0 - - -;
#X obj 1229 102 <=;
#X obj 18 127 s speed;
#X obj 147 126 s speed;
#X msg 18 91 1;
#X obj 1026 196 r speed;
#X obj 1350 201 r speed;
#X obj 1657 188 r speed;
#X obj 1100 661 array define sources_memory;
#X obj 1305 623 r n_sources;
#X obj 1305 648 * 3;
#X obj 1305 673 array size sources_memory;
#X obj 1100 638 r b;
#X obj 1099 814 pack \$1 \$2 \$3;
#X obj 1099 193 r b;
#X obj 1409 184 r b;
#X msg 1409 210 1;
#X obj 1715 161 r b;
#X msg 1715 187 1;
#X msg 585 -352 open 19;
#X obj 1156 884 array set sources_memory;
#X obj 1226 737 r source;
#X obj 1226 849 * 3;
#X obj 1099 1046 array get sources_memory;
#X obj 1113 941 r source;
#X obj 1099 1013 * 3;
#X msg 1169 1014 3;
#X obj 1099 702 r bang_source;
#X obj 1226 765 - 1;
#X obj 1226 817 mod;
#X obj 1241 789 r n_sources;
#X obj 1099 1078 unpack f f f;
#X floatatom 1099 1109 5 0 0 0 - - -;
#X floatatom 1137 1110 5 0 0 0 - - -;
#X floatatom 1174 1110 5 0 0 0 - - -;
#X obj 1099 985 f;
#X obj 1099 888 bng 15 250 50 0 empty empty empty 17 7 0 10 -262144
-1 -1;
#X obj 1099 775 f;
#X text 1202 935 memory: when changing source n-1 to n 1) store position
of source n-1 in the sources_memory arrray 2) recall position of source
n from the sources_memory array;
#X text 241 -175 HID buttons and joystick management;
#X text 635 45 source 0 is selected when patch starts;
#X text 1087 -105 HID values converted to speed in each direction;
#X text -5 166 high speed (10 m/s);
#X text 142 152 low speed (1 m/s);
#X msg 1099 219 10;
#X msg 875 -311 connect localhost 5510;
#X text 623 -252 <-- 5) Send a general bang to initialize everything.
;
#X text 637 -352 <-- 2) Edit the joystick ID.;
#X text 1070 -313 <-- 4) Enter the number of sources to control;
#X obj 603 722 pack;
#X obj 624 688 r source;
#X obj 603 666 r x;
#X msg 603 750 sendtyped /x_\$2 f \$1;
#X obj 743 724 pack;
#X obj 764 690 r source;
#X obj 743 668 r y;
#X msg 743 752 sendtyped /y_\$2 f \$1;
#X obj 877 724 pack;
#X obj 898 690 r source;
#X obj 877 668 r z;
#X msg 877 752 sendtyped /z_\$2 f \$1;
#X text 180 458 Spherical Coordinates;
#X text 337 979 OSC messages transmission;
#X text 697 622 Cartesian Coordinates;
#X text 648 -312 3) Edit the OSC sending address. -->;
#X text 703 -215 <-- 6) Turn ON the OSC messages.;
#X text 97 -361 joystick2osc : a patch to use an USB HID device to
control sources trajectories with ambitools. See the documentation
here: http://www.sekisushai.net/ambitools/doc/joystick2osc.html v1.0
©2015-2022 Pierre Lecomte;
#X connect 0 0 1 0;
#X connect 2 0 3 0;
#X connect 3 0 5 0;
#X connect 3 0 24 0;
#X connect 4 0 104 0;
#X connect 5 0 35 0;
#X connect 6 0 105 0;
#X connect 7 0 47 0;
#X connect 8 0 223 0;
#X connect 9 0 108 0;
#X connect 10 0 108 1;
#X connect 11 0 37 0;
#X connect 12 0 10 0;
#X connect 13 0 18 0;
#X connect 14 0 22 0;
#X connect 15 0 100 0;
#X connect 16 0 14 0;
#X connect 17 0 186 0;
#X connect 18 0 16 0;
#X connect 19 0 17 0;
#X connect 20 0 22 1;
#X connect 21 0 20 0;
#X connect 22 0 15 0;
#X connect 23 0 124 0;
#X connect 23 0 125 0;
#X connect 23 0 29 0;
#X connect 24 0 25 0;
#X connect 24 0 44 0;
#X connect 24 0 45 0;
#X connect 24 0 52 0;
#X connect 25 0 26 0;
#X connect 26 0 23 0;
#X connect 28 0 3 0;
#X connect 29 0 50 0;
#X connect 30 0 73 0;
#X connect 31 0 77 0;
#X connect 32 0 33 0;
#X connect 33 0 97 0;
#X connect 34 0 31 1;
#X connect 34 0 64 0;
#X connect 35 0 4 0;
#X connect 35 1 6 0;
#X connect 35 2 7 0;
#X connect 36 0 103 0;
#X connect 39 0 19 0;
#X connect 40 0 46 0;
#X connect 41 0 40 0;
#X connect 41 0 23 0;
#X connect 42 0 208 0;
#X connect 43 0 42 0;
#X connect 43 0 23 0;
#X connect 44 0 43 0;
#X connect 45 0 41 0;
#X connect 46 0 207 0;
#X connect 48 0 21 0;
#X connect 48 0 65 0;
#X connect 49 0 69 1;
#X connect 51 0 88 0;
#X connect 52 0 53 0;
#X connect 53 0 51 0;
#X connect 54 0 55 0;
#X connect 56 0 241 1;
#X connect 57 0 217 1;
#X connect 58 0 217 2;
#X connect 62 0 63 0;
#X connect 63 0 23 0;
#X connect 64 0 70 0;
#X connect 65 0 22 0;
#X connect 66 0 67 0;
#X connect 67 0 68 0;
#X connect 69 0 31 0;
#X connect 70 0 69 0;
#X connect 72 0 73 0;
#X connect 73 0 80 0;
#X connect 74 0 183 0;
#X connect 75 0 76 0;
#X connect 76 0 93 0;
#X connect 77 0 32 0;
#X connect 79 0 73 0;
#X connect 81 0 249 0;
#X connect 83 0 84 0;
#X connect 84 0 85 0;
#X connect 86 0 88 1;
#X connect 87 0 89 0;
#X connect 88 0 87 0;
#X connect 88 0 86 0;
#X connect 89 0 91 0;
#X connect 90 0 89 1;
#X connect 91 0 96 0;
#X connect 91 0 54 0;
#X connect 92 0 88 1;
#X connect 93 0 95 0;
#X connect 94 0 93 1;
#X connect 95 0 72 0;
#X connect 97 0 99 0;
#X connect 98 0 97 1;
#X connect 99 0 72 0;
#X connect 100 0 102 0;
#X connect 101 0 100 1;
#X connect 102 0 72 0;
#X connect 103 0 116 0;
#X connect 103 1 9 0;
#X connect 106 0 185 0;
#X connect 107 0 184 0;
#X connect 108 0 11 0;
#X connect 109 0 110 0;
#X connect 110 0 111 0;
#X connect 111 0 128 0;
#X connect 112 0 114 0;
#X connect 112 0 119 0;
#X connect 112 0 120 0;
#X connect 113 0 112 1;
#X connect 114 0 127 0;
#X connect 116 0 129 0;
#X connect 117 0 112 1;
#X connect 118 0 119 1;
#X connect 118 0 121 1;
#X connect 118 0 122 0;
#X connect 119 0 113 0;
#X connect 120 0 117 0;
#X connect 121 0 120 1;
#X connect 122 0 121 0;
#X connect 124 0 38 0;
#X connect 125 0 27 0;
#X connect 126 0 112 1;
#X connect 126 0 112 0;
#X connect 128 0 187 0;
#X connect 129 0 115 0;
#X connect 129 0 112 0;
#X connect 130 0 205 0;
#X connect 131 0 205 1;
#X connect 132 0 148 0;
#X connect 133 0 131 0;
#X connect 134 0 140 0;
#X connect 134 1 130 0;
#X connect 135 0 136 0;
#X connect 136 0 153 0;
#X connect 137 0 138 0;
#X connect 137 0 141 0;
#X connect 137 0 142 0;
#X connect 138 0 152 0;
#X connect 140 0 146 0;
#X connect 141 0 154 0;
#X connect 142 0 155 0;
#X connect 143 0 142 1;
#X connect 144 0 143 0;
#X connect 146 0 137 0;
#X connect 146 0 139 0;
#X connect 147 0 134 0;
#X connect 149 0 135 0;
#X connect 150 0 137 1;
#X connect 150 0 137 0;
#X connect 151 0 141 1;
#X connect 151 0 143 1;
#X connect 151 0 144 0;
#X connect 153 0 199 0;
#X connect 154 0 137 1;
#X connect 155 0 137 1;
#X connect 156 0 174 0;
#X connect 157 0 174 1;
#X connect 158 0 182 0;
#X connect 159 0 157 0;
#X connect 160 0 166 0;
#X connect 160 1 156 0;
#X connect 161 0 162 0;
#X connect 162 0 173 0;
#X connect 163 0 164 0;
#X connect 163 0 167 0;
#X connect 163 0 168 0;
#X connect 164 0 177 0;
#X connect 166 0 172 0;
#X connect 167 0 175 0;
#X connect 168 0 176 0;
#X connect 169 0 168 1;
#X connect 170 0 169 0;
#X connect 172 0 163 0;
#X connect 172 0 165 0;
#X connect 173 0 193 0;
#X connect 174 0 158 0;
#X connect 175 0 163 1;
#X connect 176 0 163 1;
#X connect 178 0 160 0;
#X connect 179 0 161 0;
#X connect 180 0 163 1;
#X connect 180 0 163 0;
#X connect 181 0 167 1;
#X connect 181 0 169 1;
#X connect 181 0 170 0;
#X connect 183 0 75 0;
#X connect 184 0 185 0;
#X connect 184 1 74 1;
#X connect 185 0 74 0;
#X connect 186 0 14 0;
#X connect 186 1 14 1;
#X connect 187 0 188 0;
#X connect 188 0 129 0;
#X connect 188 0 191 0;
#X connect 189 0 192 0;
#X connect 190 0 189 0;
#X connect 191 0 190 0;
#X connect 191 1 189 1;
#X connect 192 0 129 1;
#X connect 193 0 194 0;
#X connect 194 0 197 0;
#X connect 194 0 172 0;
#X connect 195 0 198 0;
#X connect 196 0 195 0;
#X connect 197 0 196 0;
#X connect 197 1 195 1;
#X connect 198 0 172 1;
#X connect 199 0 200 0;
#X connect 200 0 203 0;
#X connect 200 0 146 0;
#X connect 201 0 204 0;
#X connect 202 0 201 0;
#X connect 203 0 202 0;
#X connect 203 1 201 1;
#X connect 204 0 146 1;
#X connect 205 0 132 0;
#X connect 208 0 206 0;
#X connect 209 0 190 0;
#X connect 210 0 202 0;
#X connect 211 0 196 0;
#X connect 213 0 214 0;
#X connect 214 0 215 0;
#X connect 216 0 212 0;
#X connect 217 0 240 0;
#X connect 217 0 224 0;
#X connect 218 0 248 0;
#X connect 219 0 220 0;
#X connect 220 0 202 0;
#X connect 221 0 222 0;
#X connect 222 0 196 0;
#X connect 223 0 3 0;
#X connect 225 0 232 0;
#X connect 226 0 224 1;
#X connect 227 0 235 0;
#X connect 228 0 230 0;
#X connect 228 0 239 1;
#X connect 229 0 227 0;
#X connect 230 0 227 1;
#X connect 231 0 241 0;
#X connect 232 0 233 0;
#X connect 233 0 226 0;
#X connect 234 0 233 1;
#X connect 235 0 236 0;
#X connect 235 1 237 0;
#X connect 235 2 238 0;
#X connect 236 0 59 0;
#X connect 237 0 60 0;
#X connect 238 0 61 0;
#X connect 239 0 229 0;
#X connect 240 0 239 0;
#X connect 241 0 217 0;
#X connect 248 0 190 0;
#X connect 249 0 78 0;
#X connect 253 0 256 0;
#X connect 254 0 253 1;
#X connect 255 0 253 0;
#X connect 256 0 72 0;
#X connect 257 0 260 0;
#X connect 258 0 257 1;
#X connect 259 0 257 0;
#X connect 260 0 72 0;
#X connect 261 0 264 0;
#X connect 262 0 261 1;
#X connect 263 0 261 0;
#X connect 264 0 72 0;
